<?xml version="1.0" encoding="iso-8859-1"?>
<!-- Generator: Adobe Illustrator 17.1.0, SVG Export Plug-In . SVG Version: 6.00 Build 0)  -->
<!DOCTYPE svg PUBLIC "-//W3C//DTD SVG 1.1//EN" "http://www.w3.org/Graphics/SVG/1.1/DTD/svg11.dtd">
<svg version="1.1" id="Capa_1" xmlns="http://www.w3.org/2000/svg" xmlns:xlink="http://www.w3.org/1999/xlink" x="0px" y="0px"
	 viewBox="0 0 167.707 167.707" style="enable-background:new 0 0 167.707 167.707;" xml:space="preserve">
<path d="M154.799,140.863H12.909C5.791,140.863,0,135.072,0,127.954V39.753
	c0-7.118,5.791-12.909,12.909-12.909h141.89c7.117,0,12.908,5.791,12.908,12.909v88.201
	C167.707,135.072,161.916,140.863,154.799,140.863z M7.013,133.22c1.449,1.621,3.556,2.644,5.896,2.644h141.89
	c2.324,0,4.416-1.008,5.864-2.608L97.388,86.822l-12.068,8.809c-0.876,0.64-2.065,0.641-2.943,0.003l-12.133-8.814L7.013,133.22z
	 M101.624,83.729l61.062,44.808c0.015-0.192,0.021-0.387,0.021-0.583V39.753c0-0.199-0.008-0.397-0.022-0.593L101.624,83.729z
	 M5.007,39.427C5.002,39.535,5,39.644,5,39.753v88.201c0,0.178,0.006,0.354,0.018,0.527l60.979-44.747L5.007,39.427z M6.896,34.619
	l76.945,55.899l76.817-56.07c-1.448-1.599-3.539-2.604-5.86-2.604H12.909C10.505,31.844,8.349,32.922,6.896,34.619z"/>
<g>
</g>
<g>
</g>
<g>
</g>
<g>
</g>
<g>
</g>
<g>
</g>
<g>
</g>
<g>
</g>
<g>
</g>
<g>
</g>
<g>
</g>
<g>
</g>
<g>
</g>
<g>
</g>
<g>
</g>
</svg>
