<svg xmlns="http://www.w3.org/2000/svg" width="611.981" height="611.981" viewBox="0 0 611.981 611.981"><path d="M605.95 114.16c-4.91-3.356-11.387-3.245-16.144.32-3.287 2.454-8.183 4.63-13.896 6.53 18.82-23.34 19.098-38.943 18.82-42.785-.375-4.993-3.412-9.417-7.947-11.54-4.55-2.135-9.875-1.663-13.952 1.277-25.657 18.363-51.328 22.357-66.307 22.884-24.382-22.648-55.906-35.06-89.414-35.06-72.495 0-131.48 58.956-131.48 131.45 0 5.243.305 10.485.93 15.672C165.58 199.898 67.456 85.868 66.47 84.703c-2.898-3.44-7.268-5.256-11.79-4.854-4.48.4-8.487 2.94-10.762 6.823-30.79 52.633-18.224 102.506 2.885 137.387-3.925-2.108-8.668-2.247-12.746-.208-4.633 2.302-7.615 7.004-7.698 12.19-.9 55.297 24.354 88.444 49.832 107.75-1.872.763-3.578 1.942-4.98 3.48-3.313 3.634-4.465 8.75-3.01 13.454 17.712 57.127 59.32 78.54 88.514 86.557-33.48 23.605-74.893 29.14-106.362 29.14-20.096 0-33.938-2.386-34.077-2.415-6.27-1.11-12.566 2.262-15.132 8.143-2.552 5.88-.75 12.745 4.383 16.6C68.678 546.227 144.93 556.2 197.785 556.2c41.773 0 70.8-6.104 72.27-6.422 271.307-63.354 281.612-306.618 281.182-350.943 50.857-46.725 58.957-64.963 60.233-69.512 1.595-5.715-.624-11.803-5.52-15.16zm-78.054 68.444c-3.148 2.857-4.812 6.99-4.52 11.234.18 2.635 15.005 264.8-259.366 328.877-.264.055-27.6 5.756-66.24 5.756-36.003 0-83.657-4.923-129.134-24.88 41.635-2.664 92.687-15.438 129.412-56.06 3.675-4.077 4.577-9.917 2.344-14.937-2.233-5.008-7.24-8.238-12.718-8.238-2.58 0-57.168-.652-84.49-51.398 12.648.402 24.118-1.47 32.62-5.34 5.45-2.482 8.668-8.17 8.03-14.12-.638-5.948-5.048-10.817-10.9-12.08-2.955-.636-65.796-14.95-77.127-81.23 9.847 3.76 21.83 6.366 33.425 4.66 5.38-.804 9.805-4.674 11.303-9.902 1.498-5.23-.208-10.86-4.34-14.382-2.774-2.358-62.703-54.436-36.67-122.588C94.433 153.41 189.422 236.82 303.967 230.37c4.133-.236 7.96-2.316 10.4-5.658 2.442-3.343 3.274-7.614 2.248-11.636-2.15-8.39-3.23-17.087-3.23-25.824 0-57.182 46.53-103.713 103.74-103.713 28.028 0 54.282 10.997 73.95 30.982 2.55 2.58 6.018 4.078 9.65 4.133l2.137.014c10.194 0 26.17-1.235 44.492-7.144-5.866 6.2-13.494 13.19-23.383 20.83-4.853 3.76-6.656 10.25-4.45 15.964 2.204 5.728 7.974 9.334 14.02 8.834 2.247-.18 12.12-1.04 24.34-3.23-7.697 7.877-17.502 17.35-29.984 28.68z"/></svg>
